<svg width="27" height="25" viewBox="0 0 27 25" fill="none" xmlns="http://www.w3.org/2000/svg">
<g clip-path="url(#clip0_375_2574)">
<path d="M5.86544 3.54395C5.30396 3.54467 4.76572 3.75157 4.36878 4.11925C3.97184 4.48694 3.7486 4.98539 3.74805 5.50527C3.74805 6.5873 4.69727 7.46699 5.86544 7.46699C6.42717 7.46637 6.96572 7.25951 7.36296 6.89176C7.76021 6.52401 7.98373 6.0254 7.98452 5.50527C7.98351 4.98525 7.7599 4.4868 7.36269 4.11916C6.96548 3.75151 6.42707 3.54467 5.86544 3.54395ZM7.26902 5.24238L5.87978 5.8502C5.84751 5.86393 5.81199 5.86984 5.77657 5.86738C5.74115 5.86492 5.70699 5.85417 5.67728 5.83613C5.65195 5.82123 5.63039 5.80144 5.61408 5.77812C5.59777 5.75479 5.58709 5.72848 5.58278 5.70098L5.57983 4.18652C5.57983 4.13452 5.60214 4.08464 5.64186 4.04786C5.68157 4.01109 5.73544 3.99043 5.79161 3.99043C5.84778 3.99043 5.90164 4.01109 5.94136 4.04786C5.98108 4.08464 6.00339 4.13452 6.00339 4.18652V5.36152L7.08845 4.88848C7.13914 4.86631 7.19726 4.86369 7.25003 4.8812C7.27616 4.88986 7.30019 4.90321 7.32075 4.92048C7.34131 4.93775 7.35799 4.9586 7.36984 4.98184C7.3817 5.00507 7.3885 5.03025 7.38985 5.05592C7.39119 5.08159 7.38707 5.10725 7.37771 5.13144C7.36835 5.15564 7.35393 5.17789 7.33528 5.19692C7.31663 5.21596 7.29411 5.2314 7.26902 5.24238Z" fill="black"/>
<path d="M23.341 0.262695H3.69383C1.76839 0.262695 0.202393 1.7127 0.202393 3.49629V21.6861C0.202393 23.4693 1.76881 24.9201 3.69383 24.9201H23.341C25.2664 24.9201 26.8324 23.4693 26.8324 21.6861V3.49629C26.8324 1.71309 25.2664 0.262695 23.341 0.262695ZM14.6664 3.46543C14.9283 3.46543 15.1876 3.51321 15.4296 3.60603C15.6715 3.69885 15.8913 3.83491 16.0765 4.00641C16.2616 4.17792 16.4085 4.38153 16.5086 4.6056C16.6088 4.82966 16.6603 5.06981 16.6602 5.3123C16.6602 6.33223 15.9582 7.15918 14.6664 7.15918C14.4044 7.15918 14.1451 7.11141 13.9031 7.01859C13.6611 6.92578 13.4412 6.78974 13.256 6.61824C13.0707 6.44674 12.9238 6.24315 12.8236 6.01907C12.7233 5.795 12.6718 5.55484 12.6718 5.3123C12.6718 5.06977 12.7233 4.82961 12.8236 4.60554C12.9238 4.38146 13.0707 4.17786 13.256 4.00637C13.4412 3.83487 13.6611 3.69883 13.9031 3.60601C14.1451 3.5132 14.4044 3.46543 14.6664 3.46543ZM9.51613 12.0682L10.5383 9.27129C10.8117 8.57637 11.4998 7.7584 12.5338 7.7584H16.7981C17.8321 7.7584 18.5206 8.57637 18.7936 9.27129L19.8158 12.0682C19.9141 12.3791 19.8078 12.7162 19.5188 12.9061C19.3834 12.9951 19.2015 13.0545 19.0471 13.0545C18.8657 13.0545 18.6839 12.9975 18.5561 12.9143L15.8038 11.124C15.6471 11.0179 15.5418 10.8591 15.5104 10.6818C15.479 10.5045 15.5241 10.3229 15.636 10.1761C15.7479 10.0292 15.9176 9.92899 16.1085 9.8969C16.2994 9.86481 16.4963 9.90345 16.6568 10.0045L18.2679 11.1318C18.3641 11.1982 18.5 11.1799 18.5729 11.0912C18.602 11.0468 18.6136 10.9945 18.6056 10.9431C18.5976 10.8917 18.5705 10.8445 18.5291 10.8096L17.2525 9.92051V8.2377L14.6668 8.62754L12.0811 8.2377V9.92051L10.8041 10.8096C10.7628 10.8446 10.7359 10.8918 10.728 10.9432C10.72 10.9945 10.7316 11.0469 10.7607 11.0912C10.7952 11.1339 10.8467 11.1621 10.9037 11.1697C10.9607 11.1773 11.0186 11.1637 11.0648 11.1318L12.6764 10.0045C12.8369 9.90345 13.0338 9.86481 13.2247 9.8969C13.4156 9.92899 13.5853 10.0292 13.6972 10.1761C13.809 10.3229 13.8541 10.5045 13.8228 10.6818C13.7914 10.8591 13.686 11.0179 13.5294 11.124L10.7771 12.9143C10.6318 13.0052 10.4606 13.0541 10.2852 13.0545C10.1312 13.0545 9.94897 12.9947 9.81439 12.9061C9.52499 12.7162 9.41825 12.3787 9.51655 12.0682H9.51613ZM18.0523 13.0775L12.5591 12.2408L13.3472 11.7213L14.6664 11.8904L15.9839 11.7213L18.0523 13.0775ZM3.05131 5.50605C3.05131 4.06855 4.31356 2.89941 5.86522 2.89941C7.41688 2.89941 8.68039 4.06855 8.68039 5.50605C8.68039 6.94355 7.41688 8.11191 5.86522 8.11191C5.11913 8.11109 4.40385 7.83626 3.87633 7.34774C3.3488 6.85921 3.0521 6.19688 3.05131 5.50605ZM14.6419 19.9451H8.1598C7.99226 19.945 7.83163 19.8833 7.7132 19.7736C7.59478 19.6639 7.52825 19.5151 7.52825 19.36V14.1021C7.52825 13.7803 7.81049 13.5182 8.1598 13.5182H9.42332C9.77136 13.5182 10.0549 13.7803 10.0549 14.1021V17.0225H14.6423L14.6419 19.9451ZM17.3406 21.2748C17.3406 21.4072 17.3124 21.5382 17.2576 21.6604C17.2029 21.7827 17.1227 21.8938 17.0215 21.9873C16.9204 22.0809 16.8004 22.1551 16.6683 22.2057C16.5363 22.2563 16.3947 22.2823 16.2518 22.2822C16.1088 22.2823 15.9672 22.2563 15.8351 22.2058C15.703 22.1552 15.5829 22.081 15.4817 21.9875C15.3806 21.8939 15.3003 21.7828 15.2456 21.6605C15.1908 21.5383 15.1626 21.4072 15.1625 21.2748V16.8119C15.1721 16.5504 15.2911 16.3026 15.4943 16.1208C15.6975 15.9389 15.969 15.8373 16.2516 15.8373C16.5341 15.8373 16.8057 15.9389 17.0089 16.1208C17.2121 16.3026 17.331 16.5504 17.3406 16.8119V21.2748ZM16.8812 15.524L12.1254 14.7982C11.8458 14.7494 11.5979 14.6013 11.4347 14.3854C11.2716 14.1696 11.2061 13.9032 11.2523 13.6432C11.2986 13.3832 11.4529 13.1503 11.6822 12.9943C11.9115 12.8383 12.1976 12.7716 12.4794 12.8084L17.2352 13.5346C17.3763 13.5559 17.5114 13.6028 17.6329 13.6726C17.7544 13.7423 17.8598 13.8336 17.9432 13.9411C18.0265 14.0487 18.0862 14.1704 18.1186 14.2993C18.1511 14.4282 18.1558 14.5618 18.1325 14.6924C18.0853 14.9561 17.9271 15.1918 17.6925 15.3476C17.4579 15.5034 17.1662 15.5671 16.8812 15.524ZM21.8336 19.36C21.8334 19.515 21.7668 19.6637 21.6484 19.7734C21.53 19.883 21.3695 19.9448 21.2021 19.9451H17.8629V17.0225H19.307V14.1021C19.307 13.7803 19.5905 13.5182 19.9377 13.5182H21.2021C21.5497 13.5182 21.8336 13.7803 21.8336 14.1021V19.36Z" fill="black"/>
</g>
<defs>
<clipPath id="clip0_375_2574">
<rect width="27" height="25" fill="white"/>
</clipPath>
</defs>
</svg>
